<svg width="500" height="500" viewBox="0 0 500 500" fill="none" xmlns="http://www.w3.org/2000/svg">
<path d="M217.5 336.2C223.2 333.3 236.4 325.2 239.5 320.2L182.3 283C175.3 278.4 127.5 247.9 126.2 245.1C125.1 228.1 139.9 216.7 151.3 211C175.3 199.3 184.5 204.4 189.6 190.3C196.4 172 201.5 163.9 213.2 154.9C219.5 150.3 224.7 146.8 230 142.3C246.5 128.2 253.5 128.4 269.4 141.4C288.5 157 301.1 161 310.5 188.8C316.3 206.2 322 197.4 347.9 210.3C358.7 215.6 376.5 229.2 374.1 244.6C370.1 250.1 331.2 274.8 321.9 280.9L214.5 351.8C207.7 356.2 192.2 365.4 188.3 370.5C177.6 384.8 184.6 393.4 189.4 404.8C193.6 396.9 193.3 395.6 207.7 386.8L382.3 271.6C389.4 267 398.5 261.9 400.1 252C405.9 218.1 374.4 191.9 344.4 181.3C322.9 173.6 336.3 170.5 320.4 151.2C309.1 137.6 273.1 110.7 258.3 104.5C243.4 98.5 226.4 114.4 209.2 126.3C150.3 167.2 185 171 155.7 181.5C130.6 190.4 107.2 206.8 101.1 237C96.1 262.7 113.7 268.9 129.1 278.8C141.3 286.7 210.8 333.9 217.5 336.2Z" fill="black"/>
<path d="M190.1 449C193.6 439.1 197.4 438.3 201.6 434.9C230.7 416 393.1 310.1 400.2 303C412.3 290.9 407.3 278.8 400.2 266.7C397.6 272.5 399.7 273.8 388.9 280.8C361.1 298.3 196.6 406.2 190.2 412.7C178.1 425 183.1 436.7 190.1 449Z" fill="black"/>
<path d="M205 343.8L109.4 278.2C102.6 273.5 102.4 273.8 100.2 265.2C76.2 297.1 113.2 311.6 136.3 327.3C148 335.5 158.5 342.7 170.4 350.8C178.1 356 179.9 360.7 187.6 356.1C192.4 353.2 202.3 347.2 205 343.8Z" fill="black"/>
<path d="M152.7 166.7C157.7 154.2 162.5 152.2 171.8 142.9C180.973 134.535 194.521 125.259 204.745 115C209.451 110.277 213.453 105.346 216 100.2C222 87.4 216.8 74.3 208.3 68.2C206.5 76.5 202.9 79 196.4 85.5C180.937 100.401 168.274 109.5 153.412 124.94C149.871 128.619 146.358 132.238 145.1 135.1C138 150.5 146.9 158.9 152.7 166.7Z" fill="#00BB40"/>
<path d="M146.9 120C147.4 112 151.9 109.8 158.7 103C164.5 98 171.1 93.1999 176.2 88.2999C190.3 74.1999 183.6 64.2 173.7 51C172.5 57.5 168.5 61 162.5 67C158.1 70.7 151.7 75.2 146.9 79.3C129 94.5 143.5 115.2 146.9 120Z" fill="#00BB40"/>
</svg>
